<mxfile host="app.diagrams.net" modified="2021-11-25T12:41:46.603Z" agent="5.0 (Windows NT 10.0; Win64; x64) AppleWebKit/537.36 (KHTML, like Gecko) Chrome/95.0.4638.54 Safari/537.36" etag="85u9otHHayY8G4gpkgL3" version="15.8.3" type="github">
  <diagram id="6oXaPduvG6vBIcBQn0vt" name="Page-1">
    <mxGraphModel dx="1422" dy="706" grid="1" gridSize="10" guides="1" tooltips="1" connect="1" arrows="1" fold="1" page="1" pageScale="1" pageWidth="827" pageHeight="1169" math="0" shadow="0">
      <root>
        <mxCell id="0" />
        <mxCell id="1" parent="0" />
        <mxCell id="IeyE7v2gSWWwr_2ScStR-1" value="" style="html=1;verticalLabelPosition=bottom;align=center;labelBackgroundColor=#ffffff;verticalAlign=top;strokeWidth=2;strokeColor=#0080F0;shadow=0;dashed=0;shape=mxgraph.ios7.icons.cloud;" vertex="1" parent="1">
          <mxGeometry x="270" y="180" width="530" height="370" as="geometry" />
        </mxCell>
        <mxCell id="IeyE7v2gSWWwr_2ScStR-2" value="用户" style="shape=actor;whiteSpace=wrap;html=1;" vertex="1" parent="1">
          <mxGeometry x="190" y="404" width="40" height="60" as="geometry" />
        </mxCell>
        <mxCell id="IeyE7v2gSWWwr_2ScStR-3" value="玄武盾" style="aspect=fixed;html=1;points=[];align=center;image;fontSize=12;image=img/lib/azure2/networking/Web_Application_Firewall_Policies_WAF.svg;" vertex="1" parent="1">
          <mxGeometry x="380" y="400" width="68" height="68" as="geometry" />
        </mxCell>
        <mxCell id="IeyE7v2gSWWwr_2ScStR-4" value="VPC" style="sketch=0;outlineConnect=0;gradientColor=none;html=1;whiteSpace=wrap;fontSize=12;fontStyle=0;shape=mxgraph.aws4.group;grIcon=mxgraph.aws4.group_vpc;strokeColor=#879196;fillColor=none;verticalAlign=top;align=left;spacingLeft=30;fontColor=#879196;dashed=0;" vertex="1" parent="1">
          <mxGeometry x="520" y="360" width="170" height="175" as="geometry" />
        </mxCell>
        <mxCell id="IeyE7v2gSWWwr_2ScStR-5" value="加密机" style="aspect=fixed;perimeter=ellipsePerimeter;html=1;align=center;shadow=0;dashed=0;spacingTop=3;image;image=img/lib/active_directory/generic_server.svg;" vertex="1" parent="1">
          <mxGeometry x="448" y="300" width="28.000000000000004" height="50" as="geometry" />
        </mxCell>
        <mxCell id="IeyE7v2gSWWwr_2ScStR-6" value="" style="shape=flexArrow;endArrow=classic;html=1;rounded=0;" edge="1" parent="1">
          <mxGeometry width="50" height="50" relative="1" as="geometry">
            <mxPoint x="240" y="440" as="sourcePoint" />
            <mxPoint x="370" y="440" as="targetPoint" />
          </mxGeometry>
        </mxCell>
        <mxCell id="IeyE7v2gSWWwr_2ScStR-8" value="透明传输" style="edgeLabel;html=1;align=center;verticalAlign=middle;resizable=0;points=[];" vertex="1" connectable="0" parent="IeyE7v2gSWWwr_2ScStR-6">
          <mxGeometry x="-0.0974" y="1" relative="1" as="geometry">
            <mxPoint as="offset" />
          </mxGeometry>
        </mxCell>
        <mxCell id="IeyE7v2gSWWwr_2ScStR-7" value="服务器" style="aspect=fixed;perimeter=ellipsePerimeter;html=1;align=center;shadow=0;dashed=0;spacingTop=3;image;image=img/lib/active_directory/generic_server.svg;" vertex="1" parent="1">
          <mxGeometry x="591" y="414" width="28.000000000000004" height="50" as="geometry" />
        </mxCell>
        <mxCell id="IeyE7v2gSWWwr_2ScStR-9" value="" style="shape=flexArrow;endArrow=classic;html=1;rounded=0;" edge="1" parent="1">
          <mxGeometry width="50" height="50" relative="1" as="geometry">
            <mxPoint x="460" y="439" as="sourcePoint" />
            <mxPoint x="591" y="438.71" as="targetPoint" />
          </mxGeometry>
        </mxCell>
        <mxCell id="IeyE7v2gSWWwr_2ScStR-10" value="casb" style="edgeLabel;html=1;align=center;verticalAlign=middle;resizable=0;points=[];" vertex="1" connectable="0" parent="IeyE7v2gSWWwr_2ScStR-9">
          <mxGeometry x="-0.0974" y="1" relative="1" as="geometry">
            <mxPoint as="offset" />
          </mxGeometry>
        </mxCell>
        <mxCell id="IeyE7v2gSWWwr_2ScStR-11" value="" style="endArrow=classic;startArrow=classic;html=1;rounded=0;exitX=0.649;exitY=-0.011;exitDx=0;exitDy=0;exitPerimeter=0;" edge="1" parent="1" source="IeyE7v2gSWWwr_2ScStR-3">
          <mxGeometry width="50" height="50" relative="1" as="geometry">
            <mxPoint x="400" y="400" as="sourcePoint" />
            <mxPoint x="450" y="350" as="targetPoint" />
          </mxGeometry>
        </mxCell>
        <mxCell id="IeyE7v2gSWWwr_2ScStR-13" value="堡垒机" style="sketch=0;outlineConnect=0;fontColor=#232F3E;gradientColor=none;fillColor=#B0084D;strokeColor=none;dashed=0;verticalLabelPosition=bottom;verticalAlign=top;align=center;html=1;fontSize=12;fontStyle=0;aspect=fixed;pointerEvents=1;shape=mxgraph.aws4.shield_shield_advanced;" vertex="1" parent="1">
          <mxGeometry x="540" y="210" width="70" height="78" as="geometry" />
        </mxCell>
        <mxCell id="IeyE7v2gSWWwr_2ScStR-15" value="" style="endArrow=classic;startArrow=classic;html=1;rounded=0;" edge="1" parent="1">
          <mxGeometry width="50" height="50" relative="1" as="geometry">
            <mxPoint x="490" y="320" as="sourcePoint" />
            <mxPoint x="540" y="270" as="targetPoint" />
          </mxGeometry>
        </mxCell>
        <mxCell id="IeyE7v2gSWWwr_2ScStR-17" value="" style="shape=flexArrow;endArrow=classic;html=1;rounded=0;" edge="1" parent="1" target="IeyE7v2gSWWwr_2ScStR-4">
          <mxGeometry width="50" height="50" relative="1" as="geometry">
            <mxPoint x="591" y="310" as="sourcePoint" />
            <mxPoint x="651" y="370" as="targetPoint" />
          </mxGeometry>
        </mxCell>
        <mxCell id="IeyE7v2gSWWwr_2ScStR-18" value="Text" style="text;html=1;strokeColor=none;fillColor=none;align=center;verticalAlign=middle;whiteSpace=wrap;rounded=0;" vertex="1" parent="1">
          <mxGeometry x="550" y="350" width="60" height="30" as="geometry" />
        </mxCell>
        <mxCell id="IeyE7v2gSWWwr_2ScStR-19" value="UKEY" style="text;html=1;strokeColor=none;fillColor=none;align=center;verticalAlign=middle;whiteSpace=wrap;rounded=0;" vertex="1" parent="1">
          <mxGeometry x="180" y="464" width="60" height="30" as="geometry" />
        </mxCell>
        <mxCell id="IeyE7v2gSWWwr_2ScStR-20" value="&lt;div style=&quot;text-align: left&quot;&gt;&lt;span&gt;1、透明代理：解决用户认证过程中的报文加密传输问题，国密证书浏览器支持不够&lt;/span&gt;&lt;/div&gt;&lt;div style=&quot;text-align: left&quot;&gt;&lt;span&gt;2、玄武盾casb解决用户加密存储问题&lt;/span&gt;&lt;/div&gt;&lt;div style=&quot;text-align: left&quot;&gt;&lt;span&gt;3、玄武盾实现kms服务解决密钥协商问题&lt;/span&gt;&lt;/div&gt;&lt;div style=&quot;text-align: left&quot;&gt;&lt;span&gt;4、国密堡垒机解决设备身份认证和设备完整性问题&lt;/span&gt;&lt;/div&gt;" style="text;html=1;strokeColor=none;fillColor=none;align=center;verticalAlign=middle;whiteSpace=wrap;rounded=0;" vertex="1" parent="1">
          <mxGeometry x="330" y="570" width="386" height="105" as="geometry" />
        </mxCell>
      </root>
    </mxGraphModel>
  </diagram>
</mxfile>
